<svg id="noun-award-1779576_1_" data-name="noun-award-1779576 (1)" xmlns="http://www.w3.org/2000/svg" width="52.5" height="50.591" viewBox="0 0 52.5 50.591">
  <g id="Group_68833" data-name="Group 68833">
    <path id="Path_144051" data-name="Path 144051" d="M84,8.527l1.145-.573C85.527,6.618,87.436,7.191,88.2,7c-.764.382-2.1,2.1-3.055,1.336-.382,0-.573.191-.955.382H84Z" transform="translate(-67.964 -5.664)" fill="#edcb66"/>
    <path id="Path_144052" data-name="Path 144052" d="M69,18.955A7.738,7.738,0,0,1,70.718,18h.191v.191c-.573.382-1.145.573-1.718.955H69Z" transform="translate(-55.827 -14.564)" fill="#edcb66"/>
    <path id="Path_144053" data-name="Path 144053" d="M56,28.955A5.062,5.062,0,0,1,57.145,28h.191c0,.191,0,.191.191.191a6.48,6.48,0,0,0-1.145,1.145H56Z" transform="translate(-45.309 -22.655)" fill="#edcb66"/>
    <path id="Path_144054" data-name="Path 144054" d="M42,41.336h.191A3.424,3.424,0,0,1,43.145,40c.191,0,.191.191.382.191v.191c-.382.382-.573.764-.955,1.145h-.191a.187.187,0,0,1-.191.191C42.191,41.527,42.191,41.527,42,41.336Z" transform="translate(-33.982 -32.364)" fill="#edcb66"/>
    <path id="Path_144055" data-name="Path 144055" d="M32,58.336A4.785,4.785,0,0,1,32.764,57h.191c.191.191.191.191.191.382l-.573,1.145h-.191c0,.191-.191.191-.382.191Z" transform="translate(-25.891 -46.118)" fill="#edcb66"/>
    <path id="Path_144056" data-name="Path 144056" d="M23,76.482c.191-.764.573-1.718.764-2.482h.382c0,.191.191.191.191.382-.191.573-.382,1.336-.573,2.1h-.191a.187.187,0,0,1-.191.191C23.191,76.673,23.191,76.482,23,76.482Z" transform="translate(-18.609 -59.873)" fill="#edcb66"/>
    <path id="Path_144057" data-name="Path 144057" d="M21,100.055V97.191c.191,0,.382,0,.382-.191l.382.382a7.158,7.158,0,0,0-.191,2.1v.382h0c-.191.191-.382.191-.382.382Z" transform="translate(-16.991 -78.482)" fill="#edcb66"/>
    <path id="Path_144058" data-name="Path 144058" d="M21.382,124.482c-.191-.764-.191-1.527-.382-2.291.191,0,.191,0,.382-.191,0,.191.191.191.382.191a5.885,5.885,0,0,0,.191,1.909c0,.191-.191.382-.191.573C21.573,124.482,21.573,124.482,21.382,124.482Z" transform="translate(-16.991 -98.709)" fill="#edcb66"/>
    <path id="Path_144059" data-name="Path 144059" d="M28.145,148.055A9,9,0,0,1,27,145.191l.191-.191a.591.591,0,0,1,.382.191,13.256,13.256,0,0,0,.955,2.482v.382Z" transform="translate(-21.845 -117.318)" fill="#edcb66"/>
    <path id="Path_144060" data-name="Path 144060" d="M40.909,171.864c-.573-.764-1.336-1.718-1.909-2.482,0-.191,0-.191.191-.382h.382a12.256,12.256,0,0,0,1.909,2.482v.382Z" transform="translate(-31.555 -136.736)" fill="#edcb66"/>
    <path id="Path_144061" data-name="Path 144061" d="M60.673,192.291A23.165,23.165,0,0,1,58,190.382l.191-.191c0-.191.191-.191.382-.191l2.291,1.718c0,.191.191.382.191.573Z" transform="translate(-46.927 -153.727)" fill="#edcb66"/>
    <path id="Path_144062" data-name="Path 144062" d="M85.627,206.718c-1.145-.382-2.482-.764-3.436-1.145a.591.591,0,0,1-.191-.382.667.667,0,0,0,.382-.191c1.145.382,2.1.764,3.245,1.145.191.191.382.191.382.382A.667.667,0,0,1,85.627,206.718Z" transform="translate(-66.345 -165.864)" fill="#edcb66"/>
    <path id="Path_144063" data-name="Path 144063" d="M94.1,186c.382,1.145,3.436,3.436,1.145,5.345,1.527,2.673-2.291,3.627-3.245,4.582.573-1.145.382-4.773,3.055-4.582C92.573,190.582,94.1,187.145,94.1,186Z" transform="translate(-74.436 -150.491)" fill="#edcb66" fill-rule="evenodd"/>
    <path id="Path_144064" data-name="Path 144064" d="M79.57,5.536c-.764-.382-3.055-.382-2.673-2.1C75.37,2.673,76.706.764,76.706,0c.191.764,1.718,2.291.382,3.245C78.616,2.673,79,4.964,79.57,5.536Z" transform="translate(-61.625)" fill="#edcb66" fill-rule="evenodd"/>
    <path id="Path_144065" data-name="Path 144065" d="M61.773,176c.191,1.145,2.482,4.391-.382,5.536.573,2.864-3.245,2.673-4.391,3.436.955-.955,1.718-4.582,4.2-3.627C59.1,179.818,61.582,177.145,61.773,176Z" transform="translate(-46.118 -142.4)" fill="#edcb66" fill-rule="evenodd"/>
    <path id="Path_144066" data-name="Path 144066" d="M37.064,161c-.191,1.336,1.145,4.964-1.909,5.345h0c-.191,2.864-4.009,1.718-5.155,2.1.955-.764,2.864-4.009,4.964-2.291C33.245,164.055,36.491,162.145,37.064,161Z" transform="translate(-24.273 -130.264)" fill="#edcb66" fill-rule="evenodd"/>
    <path id="Path_144067" data-name="Path 144067" d="M19.209,145c-.573.955-.191,4.582-2.864,4.2-.955,2.673-4.009.764-5.345.573,1.145-.191,3.627-2.673,5.155-.764C15.2,146.718,18.445,145.764,19.209,145Z" transform="translate(-8.9 -117.318)" fill="#edcb66" fill-rule="evenodd"/>
    <path id="Path_144068" data-name="Path 144068" d="M8.973,124c-.764.955-1.336,4.582-3.818,3.627-1.527,2.291-4.009-.382-5.155-.764,1.145,0,4.009-1.909,5.155.382C4.582,124.764,8.018,124.764,8.973,124Z" transform="translate(0 -100.327)" fill="#edcb66" fill-rule="evenodd"/>
    <path id="Path_144069" data-name="Path 144069" d="M8.827,109c-.764.573-1.718,3.436-3.627,2.1-1.718,1.718-3.245-.955-4.2-1.336.955.191,3.627-.955,4.009,1.145C5.2,108.809,8.064,109.382,8.827,109Z" transform="translate(-0.809 -88.191)" fill="#edcb66" fill-rule="evenodd"/>
    <path id="Path_144070" data-name="Path 144070" d="M13.255,84.336c-.764.191-2.482,2.482-4.009.955C7.527,86.245,6.764,83.573,6,83c.764.382,3.436.191,3.436,1.909C10.009,83.191,12.491,84.336,13.255,84.336Z" transform="translate(-4.855 -67.155)" fill="#edcb66" fill-rule="evenodd"/>
    <path id="Path_144071" data-name="Path 144071" d="M21.873,58.864c-.955.191-3.055,2.1-4.009.191-2.1.573-2.291-2.291-2.864-3.055.764.573,3.436.955,2.864,2.864C18.818,57.145,21.109,58.864,21.873,58.864Z" transform="translate(-12.136 -45.309)" fill="#edcb66" fill-rule="evenodd"/>
    <path id="Path_144072" data-name="Path 144072" d="M63.7,14.773c-.764-.191-3.245.382-3.055-1.527-1.718-.382-.764-2.482-.764-3.245.191.573,2.1,2.1.955,3.055C62.17,12.291,62.934,14.391,63.7,14.773Z" transform="translate(-48.234 -8.091)" fill="#edcb66" fill-rule="evenodd"/>
    <path id="Path_144073" data-name="Path 144073" d="M34.109,41.009c-.955,0-3.436,1.336-4.009-.573C28,40.627,28.191,37.764,28,37c.573.573,3.055,1.527,2.1,3.245C31.436,38.718,33.155,40.627,34.109,41.009Z" transform="translate(-22.655 -29.936)" fill="#edcb66" fill-rule="evenodd"/>
    <path id="Path_144074" data-name="Path 144074" d="M48.919,24.155c-.955-.191-3.627.764-3.818-1.336h0C43,22.627,43.956,19.955,43.765,19c.382.764,2.864,2.1,1.527,3.627C46.819,21.482,48.156,23.773,48.919,24.155Z" transform="translate(-35.365 -15.373)" fill="#edcb66" fill-rule="evenodd"/>
    <path id="Path_144075" data-name="Path 144075" d="M174.009,8.527l-1.145-.573C172.482,6.618,170.573,7.191,170,7c.573.382,1.909,2.1,2.864,1.336a1.458,1.458,0,0,1,.955.382h.191Z" transform="translate(-137.545 -5.664)" fill="#edcb66"/>
    <path id="Path_144076" data-name="Path 144076" d="M198.718,18.955A6.7,6.7,0,0,0,197.191,18H197v.191c.573.382.955.573,1.527.955h.191Z" transform="translate(-159.391 -14.564)" fill="#edcb66"/>
    <path id="Path_144077" data-name="Path 144077" d="M213.527,28.955A3.425,3.425,0,0,0,212.191,28H212v.191l1.145,1.145h.382Z" transform="translate(-171.527 -22.655)" fill="#edcb66"/>
    <path id="Path_144078" data-name="Path 144078" d="M226.527,41.336h0A8.3,8.3,0,0,0,225.382,40l-.191.191a.187.187,0,0,1-.191.191,5.061,5.061,0,0,1,.955,1.145h.191c.191.191.191.191.382.191Z" transform="translate(-182.045 -32.364)" fill="#edcb66"/>
    <path id="Path_144079" data-name="Path 144079" d="M238.336,58.336c-.191-.382-.573-.955-.764-1.336h-.382c0,.191,0,.191-.191.382a3.994,3.994,0,0,1,.764,1.145h0a.591.591,0,0,0,.382.191A.666.666,0,0,0,238.336,58.336Z" transform="translate(-191.755 -46.118)" fill="#edcb66"/>
    <path id="Path_144080" data-name="Path 144080" d="M246.336,76.482A12.348,12.348,0,0,0,245.573,74h-.382c0,.191,0,.191-.191.382a6.839,6.839,0,0,1,.764,2.1h0c.191.191.191.191.382.191Z" transform="translate(-198.227 -59.873)" fill="#edcb66"/>
    <path id="Path_144081" data-name="Path 144081" d="M251.764,100.055v-.573c0-.764-.191-1.527-.191-2.291-.191,0-.191,0-.382-.191,0,.191-.191.191-.191.382,0,.573.191,1.336.191,2.1v.382h0c0,.191.191.191.191.382C251.573,100.245,251.573,100.055,251.764,100.055Z" transform="translate(-203.082 -78.482)" fill="#edcb66"/>
    <path id="Path_144082" data-name="Path 144082" d="M249.573,124.482a9.582,9.582,0,0,0,.382-2.291.187.187,0,0,1-.191-.191.591.591,0,0,1-.382.191A5.648,5.648,0,0,1,249,124.1a.7.7,0,0,1,.191.573A.591.591,0,0,1,249.573,124.482Z" transform="translate(-201.464 -98.709)" fill="#edcb66"/>
    <path id="Path_144083" data-name="Path 144083" d="M240.573,148.055l1.145-2.864c-.191,0-.191,0-.191-.191-.191,0-.382,0-.382.191-.382.764-.764,1.718-1.145,2.482v.382Z" transform="translate(-194.182 -117.318)" fill="#edcb66"/>
    <path id="Path_144084" data-name="Path 144084" d="M223.573,171.864c.764-.764,1.336-1.718,2.1-2.482-.191-.191-.191-.191-.191-.382H225.1a28.057,28.057,0,0,1-1.909,2.482.591.591,0,0,1-.191.382Z" transform="translate(-180.427 -136.736)" fill="#edcb66"/>
    <path id="Path_144085" data-name="Path 144085" d="M201.573,192.291a21.611,21.611,0,0,0,2.482-1.909v-.191a.591.591,0,0,0-.382-.191,27.928,27.928,0,0,1-2.482,1.718.7.7,0,0,1-.191.573Z" transform="translate(-162.627 -153.727)" fill="#edcb66"/>
    <path id="Path_144086" data-name="Path 144086" d="M172.382,206.718c1.336-.382,2.482-.764,3.627-1.145v-.382c-.191,0-.191-.191-.382-.191-.955.382-2.1.764-3.245,1.145l-.382.382A.667.667,0,0,1,172.382,206.718Z" transform="translate(-139.164 -165.864)" fill="#edcb66"/>
    <path id="Path_144087" data-name="Path 144087" d="M163.773,186c-.573,1.145-3.627,3.436-1.336,5.345-1.336,2.673,2.482,3.627,3.245,4.582-.573-1.145-.382-4.773-3.055-4.582C165.3,190.582,163.582,187.145,163.773,186Z" transform="translate(-130.746 -150.491)" fill="#edcb66" fill-rule="evenodd"/>
    <path id="Path_144088" data-name="Path 144088" d="M182,5.536c.573-.382,3.055-.382,2.673-2.1,1.527-.764.191-2.673,0-3.436-.191.764-1.527,2.291-.191,3.245C182.955,2.673,182.382,4.964,182,5.536Z" transform="translate(-147.255)" fill="#edcb66" fill-rule="evenodd"/>
    <path id="Path_144089" data-name="Path 144089" d="M189.127,176c0,1.145-2.291,4.391.382,5.536-.573,2.864,3.436,2.673,4.391,3.436-.764-.955-1.718-4.582-4.009-3.627C191.8,179.818,189.509,177.145,189.127,176Z" transform="translate(-152.282 -142.4)" fill="#edcb66" fill-rule="evenodd"/>
    <path id="Path_144090" data-name="Path 144090" d="M208,161c.382,1.336-.955,4.964,1.909,5.345h0c.382,2.864,4.009,1.718,5.345,2.1-1.145-.764-2.864-4.009-5.155-2.291C211.818,164.055,208.764,162.145,208,161Z" transform="translate(-168.291 -130.264)" fill="#edcb66" fill-rule="evenodd"/>
    <path id="Path_144091" data-name="Path 144091" d="M221,145c.573.955.191,4.582,3.055,4.2.955,2.673,4.009.764,5.155.573-1.145-.191-3.436-2.673-4.964-.764C225.2,146.718,221.955,145.764,221,145Z" transform="translate(-178.809 -117.318)" fill="#edcb66" fill-rule="evenodd"/>
    <path id="Path_144092" data-name="Path 144092" d="M228,124c.764.955,1.336,4.582,3.818,3.627,1.527,2.291,4.009-.382,5.155-.764-1.145,0-4.009-1.909-4.964.382C232.391,124.764,228.955,124.764,228,124Z" transform="translate(-184.473 -100.327)" fill="#edcb66" fill-rule="evenodd"/>
    <path id="Path_144093" data-name="Path 144093" d="M233,109c.764.573,1.909,3.436,3.818,2.1,1.527,1.718,3.245-.955,4.009-1.336-.955.191-3.627-.955-4.009,1.145C236.818,108.809,233.955,109.382,233,109Z" transform="translate(-188.518 -88.191)" fill="#edcb66" fill-rule="evenodd"/>
    <path id="Path_144094" data-name="Path 144094" d="M231,84.336c.955.191,2.673,2.482,4.009.955,1.909.955,2.673-1.718,3.245-2.291-.764.382-3.436.191-3.245,1.909C234.245,83.191,231.955,84.336,231,84.336Z" transform="translate(-186.9 -67.155)" fill="#edcb66" fill-rule="evenodd"/>
    <path id="Path_144095" data-name="Path 144095" d="M224,58.864c.955.191,3.055,2.1,4.2.191,1.909.573,2.1-2.291,2.673-3.055-.764.573-3.436.955-2.864,2.864C227.055,57.145,224.955,58.864,224,58.864Z" transform="translate(-181.236 -45.309)" fill="#edcb66" fill-rule="evenodd"/>
    <path id="Path_144096" data-name="Path 144096" d="M195,14.773c.764-.191,3.055.382,3.055-1.527,1.718-.382.573-2.482.573-3.245-.191.573-1.909,2.1-.764,3.055C196.527,12.291,195.573,14.391,195,14.773Z" transform="translate(-157.773 -8.091)" fill="#edcb66" fill-rule="evenodd"/>
    <path id="Path_144097" data-name="Path 144097" d="M215,41.009c.955,0,3.436,1.336,4.2-.573,2.1.191,1.718-2.673,2.1-3.436-.573.573-3.245,1.527-2.291,3.245C217.864,38.718,215.955,40.627,215,41.009Z" transform="translate(-173.955 -29.936)" fill="#edcb66" fill-rule="evenodd"/>
    <path id="Path_144098" data-name="Path 144098" d="M204,24.155c.955-.191,3.627.764,3.818-1.336h0c2.1-.191,1.336-2.864,1.527-3.818-.573.764-2.864,2.1-1.527,3.627C206.291,21.482,204.764,23.773,204,24.155Z" transform="translate(-165.055 -15.373)" fill="#edcb66" fill-rule="evenodd"/>
    <path id="Path_144099" data-name="Path 144099" d="M108.245,211a8.435,8.435,0,0,1,3.055,1.145A6.465,6.465,0,0,1,114.164,211l1.145,2.1c-.764.191-1.527.382-2.1.573,1.909,1.909,3.055,4.582,4.2,6.873l-3.436-3.627v4.391c-.764-2.673-1.336-4.964-2.673-6.3-1.527,1.336-1.909,3.627-2.864,6.3l.191-4.391L105,220.545c1.336-2.291,2.291-4.964,4.2-6.873-.573-.191-1.145-.382-1.909-.573Z" transform="translate(-84.955 -170.718)" fill="#edcb66" fill-rule="evenodd"/>
    <path id="Path_144100" data-name="Path 144100" d="M93.309,46.573l1.718,5.155a1.67,1.67,0,0,0,1.718,1.145h5.536a.883.883,0,0,1,.573,1.527l-4.582,3.055a1.808,1.808,0,0,0-.573,2.1l1.718,4.964a.855.855,0,0,1-1.336.955L93.5,62.227a2.06,2.06,0,0,0-2.1,0l-4.582,3.245c-.573.573-1.527-.191-1.145-.955l1.718-4.964a1.907,1.907,0,0,0-.764-2.1L82.236,54.4a.813.813,0,0,1,.382-1.527h5.727a1.835,1.835,0,0,0,1.718-1.145l1.718-5.155C91.972,45.809,92.927,45.809,93.309,46.573Z" transform="translate(-66.2 -37.218)" fill="#edcb66" fill-rule="evenodd"/>
  </g>
</svg>
